<svg width="20" height="20" viewBox="0 0 20 20" fill="none" xmlns="http://www.w3.org/2000/svg">
<path d="M13.6096 13.6096C16.747 13.1896 19.1667 10.5024 19.1667 7.25004C19.1667 3.70621 16.2938 0.833374 12.75 0.833374C9.49766 0.833374 6.81046 3.25307 6.39042 6.39045C6.6716 6.35281 6.95853 6.33337 7.25001 6.33337C10.7938 6.33337 13.6667 9.20621 13.6667 12.75C13.6667 13.0269 13.6491 13.2997 13.6151 13.5673C13.6133 13.5814 13.6115 13.5955 13.6096 13.6096Z" fill="#FFC743"/>
<path d="M0.833344 12.75C0.833344 16.2939 3.70618 19.1667 7.25001 19.1667C10.5024 19.1667 13.1896 16.747 13.6096 13.6096L13.6151 13.5673C13.6491 13.2997 13.6667 13.0269 13.6667 12.75C13.6667 9.20621 10.7938 6.33337 7.25001 6.33337C6.95853 6.33337 6.6716 6.35281 6.39042 6.39045C6.24428 6.41002 6.09969 6.4345 5.95683 6.46374C3.03286 7.06207 0.833344 9.64919 0.833344 12.75Z" fill="#FFC743"/>
<path d="M13.6096 13.6096C16.747 13.1896 19.1667 10.5024 19.1667 7.25004C19.1667 3.70621 16.2938 0.833374 12.75 0.833374C9.49766 0.833374 6.81046 3.25307 6.39042 6.39045M13.6096 13.6096C13.1896 16.747 10.5024 19.1667 7.25001 19.1667M13.6096 13.6096C13.6115 13.5955 13.6133 13.5814 13.6151 13.5673M13.6096 13.6096L13.6151 13.5673M6.39042 6.39045C6.6716 6.35281 6.95853 6.33337 7.25001 6.33337M6.39042 6.39045C6.24428 6.41002 6.09969 6.4345 5.95683 6.46374M7.25001 19.1667C3.70618 19.1667 0.833344 16.2939 0.833344 12.75C0.833344 9.64919 3.03286 7.06207 5.95683 6.46374M7.25001 19.1667C10.517 19.1667 13.2137 16.7252 13.6151 13.5673M7.25001 6.33337C10.7938 6.33337 13.6667 9.20621 13.6667 12.75C13.6667 13.0269 13.6491 13.2997 13.6151 13.5673M7.25001 6.33337C6.80703 6.33337 6.37454 6.37826 5.95683 6.46374" stroke="#E7B339" stroke-width="1.5" stroke-linecap="round" stroke-linejoin="round"/>
</svg>
