<svg width="242" height="56" viewBox="0 0 242 56" fill="none" xmlns="http://www.w3.org/2000/svg">
<path d="M21.448 55.896C17.096 55.896 13.3413 54.936 10.184 53.016C7.06933 51.096 4.68 48.408 3.016 44.952C1.352 41.496 0.52 37.4427 0.52 32.792C0.52 27.8427 1.416 23.512 3.208 19.8C5.04267 16.0453 7.58133 13.1227 10.824 11.032C14.0667 8.94133 17.7787 7.896 21.96 7.896C25.288 7.896 28.3173 8.57866 31.048 9.944C33.8213 11.2667 36.0613 13.1227 37.768 15.512C37.5547 16.28 37 17.0693 36.104 17.88C35.2507 18.6907 34.3973 19.224 33.544 19.48C32.008 17.4747 30.2587 16.0027 28.296 15.064C26.3333 14.1253 24.2213 13.656 21.96 13.656C18.9307 13.656 16.264 14.4453 13.96 16.024C11.656 17.6027 9.864 19.8 8.584 22.616C7.304 25.432 6.664 28.7173 6.664 32.472C6.664 36.0133 7.24 39.1067 8.392 41.752C9.58667 44.3973 11.3147 46.4667 13.576 47.96C15.88 49.4107 18.6747 50.136 21.96 50.136C24.8187 50.136 27.2933 49.56 29.384 48.408C31.4747 47.256 33.3733 45.6347 35.08 43.544C35.8907 43.8 36.7227 44.2693 37.576 44.952C38.4293 45.6347 39.0267 46.3173 39.368 47C37.4053 49.9013 34.8667 52.12 31.752 53.656C28.68 55.1493 25.2453 55.896 21.448 55.896ZM55.924 55.896C53.0227 55.896 50.42 55.2133 48.116 53.848C45.8547 52.44 44.0627 50.52 42.74 48.088C41.46 45.656 40.82 42.904 40.82 39.832C40.82 36.76 41.4813 34.0293 42.804 31.64C44.1267 29.2507 45.9187 27.3733 48.18 26.008C50.484 24.6 53.0653 23.896 55.924 23.896C58.7827 23.896 61.3427 24.6 63.604 26.008C65.8653 27.3733 67.636 29.2507 68.916 31.64C70.2387 34.0293 70.9 36.76 70.9 39.832C70.9 42.904 70.2387 45.656 68.916 48.088C67.636 50.52 65.8653 52.44 63.604 53.848C61.3853 55.2133 58.8253 55.896 55.924 55.896ZM55.86 50.392C58.5907 50.392 60.7667 49.432 62.388 47.512C64.052 45.592 64.884 43.032 64.884 39.832C64.884 38.2533 64.6493 36.8027 64.18 35.48C61.62 35.3947 59.2947 34.8827 57.204 33.944C55.156 33.0053 53.5347 31.7253 52.34 30.104C50.6333 30.8293 49.2893 32.0667 48.308 33.816C47.3267 35.5227 46.836 37.5707 46.836 39.96C46.836 43.0747 47.6467 45.592 49.268 47.512C50.932 49.432 53.1293 50.392 55.86 50.392ZM89.955 55.896C87.267 55.896 84.899 55.256 82.851 53.976C80.8457 52.696 79.267 50.904 78.115 48.6C77.0057 46.296 76.451 43.6507 76.451 40.664C76.451 38.0613 76.8777 35.6507 77.731 33.432C73.5923 34.4133 69.1123 34.904 64.291 34.904C63.651 34.904 63.139 34.648 62.755 34.136C62.371 33.5813 62.179 32.8987 62.179 32.088C62.179 30.3387 62.883 29.464 64.291 29.464C71.5017 29.464 78.115 28.2267 84.131 25.752C86.2643 24.5147 88.5897 23.896 91.107 23.896C92.6003 23.896 94.0723 24.1947 95.523 24.792C96.9737 25.3467 98.1897 26.1147 99.171 27.096V1.24C99.9817 0.94133 100.963 0.791996 102.115 0.791996C103.096 0.791996 104.056 0.94133 104.995 1.24V43.8C104.995 46.1467 105.294 47.832 105.891 48.856C106.531 49.88 107.534 50.392 108.899 50.392C109.496 50.392 109.944 50.648 110.243 51.16C110.584 51.672 110.755 52.3547 110.755 53.208C110.755 53.8907 110.563 54.5093 110.179 55.064C109.838 55.6187 109.262 55.896 108.451 55.896C104.398 55.896 101.667 54.232 100.259 50.904C99.0217 52.4827 97.5283 53.72 95.779 54.616C94.0297 55.4693 92.0883 55.896 89.955 55.896ZM82.403 40.664C82.403 43.6933 83.0857 46.0827 84.451 47.832C85.859 49.5387 87.779 50.392 90.211 50.392C92.899 50.392 95.0537 49.4747 96.675 47.64C98.339 45.8053 99.171 43.3947 99.171 40.408V33.24C98.3177 32.088 97.2297 31.1707 95.907 30.488C94.5843 29.7627 93.219 29.4 91.811 29.4C89.9763 29.4 88.355 29.8907 86.947 30.872C85.539 31.8533 84.4297 33.1973 83.619 34.904C82.8083 36.568 82.403 38.488 82.403 40.664ZM106.988 50.392C107.884 50.392 108.844 50.1147 109.868 49.56C110.892 49.0053 111.852 48.152 112.748 47C113.815 45.5493 114.583 43.8853 115.052 42.008C115.564 40.1307 115.884 38.232 116.012 36.312V24.792C116.396 24.664 116.844 24.5573 117.356 24.472C117.868 24.3867 118.402 24.344 118.956 24.344C119.938 24.344 120.898 24.4933 121.836 24.792V43.224C121.836 45.4853 122.178 47.256 122.86 48.536C123.586 49.7733 124.78 50.392 126.444 50.392C126.914 50.392 127.426 50.2853 127.98 50.072C128.535 49.8587 129.111 49.5387 129.708 49.112C130.434 49.4533 131.031 50.0507 131.5 50.904C131.97 51.7147 132.183 52.5253 132.14 53.336C131.458 54.104 130.583 54.7227 129.516 55.192C128.45 55.6613 127.298 55.896 126.06 55.896H125.996C121.559 55.896 118.679 53.8053 117.356 49.624C116.759 50.6053 116.119 51.4373 115.436 52.12C114.284 53.272 112.94 54.1893 111.404 54.872C109.911 55.5547 108.29 55.896 106.54 55.896C105.943 55.896 105.495 55.5973 105.196 55C104.855 54.4453 104.684 53.8267 104.684 53.144C104.684 52.4187 104.876 51.7787 105.26 51.224C105.602 50.6693 106.178 50.392 106.988 50.392ZM119.02 15.576C117.826 15.576 116.802 15.1493 115.948 14.296C115.095 13.4427 114.668 12.4187 114.668 11.224C114.668 9.944 115.074 8.89866 115.884 8.088C116.738 7.27733 117.783 6.872 119.02 6.872C120.3 6.872 121.346 7.27733 122.156 8.088C122.967 8.89866 123.372 9.944 123.372 11.224C123.372 12.4613 122.946 13.5067 122.092 14.36C121.282 15.1707 120.258 15.576 119.02 15.576ZM152.081 55.896C147.729 55.896 143.974 54.936 140.817 53.016C137.702 51.096 135.313 48.408 133.649 44.952C131.985 41.496 131.153 37.4427 131.153 32.792C131.153 27.8427 132.049 23.512 133.841 19.8C135.675 16.0453 138.214 13.1227 141.457 11.032C144.699 8.94133 148.411 7.896 152.593 7.896C155.921 7.896 158.95 8.57866 161.681 9.944C164.454 11.2667 166.694 13.1227 168.401 15.512C168.187 16.28 167.633 17.0693 166.737 17.88C165.883 18.6907 165.03 19.224 164.177 19.48C162.641 17.4747 160.891 16.0027 158.929 15.064C156.966 14.1253 154.854 13.656 152.593 13.656C149.563 13.656 146.897 14.4453 144.593 16.024C142.289 17.6027 140.497 19.8 139.217 22.616C137.937 25.432 137.297 28.7173 137.297 32.472C137.297 36.0133 137.873 39.1067 139.025 41.752C140.219 44.3973 141.947 46.4667 144.209 47.96C146.513 49.4107 149.307 50.136 152.593 50.136C155.451 50.136 157.926 49.56 160.017 48.408C162.107 47.256 164.006 45.6347 165.713 43.544C166.523 43.8 167.355 44.2693 168.209 44.952C169.062 45.6347 169.659 46.3173 170.001 47C168.038 49.9013 165.499 52.12 162.385 53.656C159.313 55.1493 155.878 55.896 152.081 55.896ZM174.494 55.256C173.513 54.9147 172.66 54.4027 171.934 53.72C171.252 52.9947 170.804 52.1413 170.59 51.16C171.358 50.4347 172.254 49.5173 173.278 48.408C174.302 47.2987 175.305 45.976 176.286 44.44C177.268 42.8613 178.078 41.0907 178.718 39.128C179.401 37.1653 179.742 34.968 179.742 32.536V24.792C180.126 24.664 180.574 24.5573 181.086 24.472C181.598 24.3867 182.132 24.344 182.686 24.344C183.668 24.344 184.628 24.4933 185.566 24.792V39.576C185.566 43.288 186.164 45.9973 187.358 47.704C188.553 49.368 190.43 50.2 192.99 50.2C199.092 50.2 202.142 45.7413 202.142 36.824V24.792C202.484 24.664 202.91 24.5573 203.422 24.472C203.934 24.3867 204.468 24.344 205.022 24.344C206.046 24.344 207.028 24.4933 207.966 24.792V43.224C207.966 45.4853 208.308 47.256 208.99 48.536C209.716 49.7733 210.91 50.392 212.574 50.392C213.3 50.392 213.79 50.6907 214.046 51.288C214.302 51.8853 214.43 52.5253 214.43 53.208C214.43 53.8907 214.238 54.5093 213.854 55.064C213.513 55.6187 212.937 55.896 212.126 55.896C208.03 55.896 205.257 54.104 203.806 50.52C202.612 52.2693 201.076 53.6133 199.198 54.552C197.321 55.448 195.102 55.896 192.542 55.896C186.697 55.896 182.836 53.2293 180.958 47.896C179.977 49.4747 178.91 50.904 177.758 52.184C176.649 53.464 175.561 54.488 174.494 55.256ZM210.218 55.896C209.663 55.896 209.215 55.64 208.874 55.128C208.533 54.616 208.362 53.9547 208.362 53.144C208.362 51.3093 209.13 50.392 210.666 50.392C211.903 50.392 213.162 50.2 214.442 49.816C215.722 49.3893 217.215 48.6853 218.922 47.704C217.258 44.8027 216.426 41.3893 216.426 37.464C216.426 34.8187 216.917 32.4933 217.898 30.488C218.879 28.44 220.245 26.84 221.994 25.688C223.743 24.4933 225.727 23.896 227.946 23.896C229.823 23.896 231.487 24.344 232.938 25.24C234.389 26.0933 235.519 27.288 236.33 28.824C237.141 30.36 237.546 32.1307 237.546 34.136C237.546 36.8667 236.735 39.3627 235.114 41.624C233.535 43.8853 230.847 46.3387 227.05 48.984C228.415 49.9653 230.25 50.456 232.554 50.456C233.791 50.456 235.029 50.2853 236.266 49.944C237.503 49.6027 238.698 49.1333 239.85 48.536C240.49 49.0053 240.959 49.7093 241.258 50.648C241.599 51.544 241.77 52.4187 241.77 53.272C240.362 54.0827 238.869 54.7227 237.29 55.192C235.711 55.6613 234.047 55.896 232.298 55.896H232.234C230.186 55.896 228.266 55.5547 226.474 54.872C224.682 54.1893 223.189 53.2507 221.994 52.056C217.898 54.616 213.973 55.896 210.218 55.896ZM221.994 36.952C221.994 40.3227 222.591 43.0107 223.786 45.016C226.559 43.096 228.607 41.2187 229.93 39.384C231.295 37.5493 231.978 35.8 231.978 34.136C231.978 32.6 231.594 31.4053 230.826 30.552C230.101 29.656 229.077 29.208 227.754 29.208C226.09 29.208 224.703 29.9547 223.594 31.448C222.527 32.9413 221.994 34.776 221.994 36.952Z" fill="#C83E81"/>
</svg>
