<svg width="20" height="20" viewBox="0 0 20 20" fill="none" xmlns="http://www.w3.org/2000/svg">
<path d="M5.33377 1.8187C6.1376 1.75455 6.90071 1.43846 7.51447 0.915419C8.94672 -0.30514 11.0533 -0.30514 12.4855 0.915419C13.0993 1.43846 13.8624 1.75455 14.6662 1.8187C16.5421 1.96839 18.0316 3.45794 18.1813 5.33377C18.2455 6.1376 18.5615 6.90071 19.0846 7.51447C20.3051 8.94672 20.3051 11.0533 19.0846 12.4855C18.5615 13.0993 18.2455 13.8624 18.1813 14.6662C18.0316 16.5421 16.5421 18.0316 14.6662 18.1813C13.8624 18.2455 13.0993 18.5615 12.4855 19.0846C11.0533 20.3051 8.94672 20.3051 7.51447 19.0846C6.90071 18.5615 6.1376 18.2455 5.33377 18.1813C3.45794 18.0316 1.96839 16.5421 1.8187 14.6662C1.75455 13.8624 1.43846 13.0993 0.915419 12.4855C-0.30514 11.0533 -0.30514 8.94672 0.915419 7.51447C1.43846 6.90071 1.75455 6.1376 1.8187 5.33377C1.96839 3.45794 3.45794 1.96839 5.33377 1.8187Z" fill="#55C1FF"/>
<path d="M6.5 10.2778L8.65385 12.5L13.5 7.5" stroke="white" stroke-width="2" stroke-linecap="round" stroke-linejoin="round"/>
</svg>
